<?xml version="1.0" encoding="UTF-8" standalone="no"?>
<!DOCTYPE svg PUBLIC "-//W3C//DTD SVG 1.1//EN" "http://www.w3.org/Graphics/SVG/1.1/DTD/svg11.dtd">
<svg xmlns="http://www.w3.org/2000/svg" version="1.1" viewBox="0.00 0.00 681.00 681.00">
<g stroke-width="2.00" fill="none" stroke-linecap="butt">
<path stroke="#fff" vector-effect="non-scaling-stroke" d="
  M 483.0340 240.2218
  A 5.46 2.39 130.5 0 0 488.3974 237.6222
  A 5.46 2.39 130.5 0 0 490.1260 231.9182
  A 5.46 2.39 130.5 0 0 484.7626 234.5178
  A 5.46 2.39 130.5 0 0 483.0340 240.2218"
/>
<path stroke="#fff" vector-effect="non-scaling-stroke" d="
  M 479.30 268.07
  C 482.26 266.86 484.84 266.78 487.92 268.05
  C 493.03 270.15 497.33 263.10 498.45 259.26
  Q 498.66 258.54 498.03 258.12
  Q 491.96 254.04 494.62 247.31
  C 495.11 246.07 496.26 245.20 497.14 244.24
  A 1.07 1.06 42.2 0 0 497.06 242.73
  C 493.15 239.22 488.85 239.99 484.28 241.42
  Q 483.04 241.80 481.84 241.32
  C 472.88 237.74 466.79 243.08 467.09 251.94
  Q 467.36 259.76 472.72 266.20
  C 474.37 268.18 476.78 269.10 479.30 268.07"
/>
<path stroke="#fff" vector-effect="non-scaling-stroke" d="
  M 587.37 292.85
  C 581.34 285.09 572.15 279.45 562.43 277.58
  C 546.27 274.45 528.30 276.52 515.56 287.43
  Q 501.09 299.81 501.06 320.41
  Q 501.03 343.16 519.41 355.26
  Q 529.17 361.68 541.66 362.65
  C 552.88 363.52 563.93 362.39 573.84 356.93
  Q 588.33 348.95 593.32 334.00
  C 597.77 320.70 596.20 304.19 587.37 292.85"
/>
<path stroke="#fff" vector-effect="non-scaling-stroke" d="
  M 116.24 277.91
  A 0.37 0.37 0.0 0 0 115.87 277.54
  L 94.63 277.54
  A 0.37 0.37 0.0 0 0 94.26 277.91
  L 94.26 361.19
  A 0.37 0.37 0.0 0 0 94.63 361.56
  L 115.87 361.56
  A 0.37 0.37 0.0 0 0 116.24 361.19
  L 116.24 277.91"
/>
<path stroke="#fff" vector-effect="non-scaling-stroke" d="
  M 145.33 293.64
  Q 145.39 293.64 145.40 293.69
  Q 146.10 297.01 146.78 300.25
  Q 147.46 303.43 148.71 306.47
  Q 159.46 332.70 170.93 360.98
  Q 171.17 361.58 171.82 361.58
  L 188.43 361.57
  Q 188.97 361.57 189.17 361.06
  Q 200.24 333.24 211.18 305.52
  C 212.53 302.09 213.37 298.53 214.40 294.99
  Q 215.42 291.53 215.07 295.12
  Q 214.56 300.43 214.53 304.96
  Q 214.32 330.95 214.48 361.06
  Q 214.48 361.58 215.00 361.58
  L 235.48 361.54
  A 0.27 0.27 0.0 0 0 235.75 361.27
  L 235.75 278.02
  Q 235.75 277.53 235.27 277.53
  L 205.44 277.54
  A 0.96 0.95 -79.2 0 0 204.55 278.15
  Q 193.48 305.87 184.08 329.75
  C 182.90 332.74 182.25 335.69 181.56 338.75
  A 0.38 0.38 0.0 0 1 180.98 338.99
  Q 180.73 338.83 180.67 338.54
  Q 179.55 332.94 177.94 328.83
  Q 167.73 302.70 157.74 277.73
  Q 157.66 277.53 157.45 277.53
  L 126.23 277.56
  A 0.35 0.34 0.0 0 0 125.88 277.90
  L 125.84 361.19
  A 0.37 0.37 0.0 0 0 126.21 361.56
  L 145.20 361.57
  Q 145.52 361.57 145.52 361.24
  C 145.55 338.70 146.11 316.33 144.71 294.07
  Q 144.68 293.71 145.05 293.67
  L 145.33 293.64"
/>
<path stroke="#fff" vector-effect="non-scaling-stroke" d="
  M 267.91 332.69
  C 281.64 332.79 295.18 333.05 306.53 324.11
  C 314.70 317.68 317.71 307.87 315.44 297.77
  C 313.74 290.19 309.38 284.75 302.42 281.67
  C 295.72 278.70 287.91 277.59 280.38 277.57
  Q 262.85 277.51 246.11 277.55
  Q 245.48 277.55 245.48 278.19
  L 245.48 361.03
  Q 245.48 361.58 246.03 361.57
  L 266.81 361.54
  Q 267.42 361.54 267.42 360.94
  L 267.35 333.24
  Q 267.35 332.68 267.91 332.69"
/>
<path stroke="#fff" vector-effect="non-scaling-stroke" d="
  M 344.34 327.35
  A 0.42 0.42 0.0 0 1 344.76 326.93
  L 375.59 327.00
  A 0.42 0.42 0.0 0 0 376.01 326.58
  L 376.02 312.07
  A 0.42 0.42 0.0 0 0 375.60 311.65
  L 344.76 311.68
  A 0.42 0.42 0.0 0 1 344.34 311.26
  L 344.37 293.53
  A 0.42 0.42 0.0 0 1 344.79 293.11
  L 378.01 293.19
  A 0.42 0.42 0.0 0 0 378.43 292.77
  L 378.44 277.97
  A 0.42 0.42 0.0 0 0 378.02 277.55
  L 323.16 277.55
  A 0.42 0.42 0.0 0 0 322.74 277.97
  L 322.74 361.14
  A 0.42 0.42 0.0 0 0 323.16 361.56
  L 380.10 361.56
  A 0.42 0.42 0.0 0 0 380.52 361.14
  L 380.53 346.61
  A 0.42 0.42 0.0 0 0 380.11 346.19
  L 344.79 346.18
  A 0.42 0.42 0.0 0 1 344.37 345.76
  L 344.34 327.35"
/>
<path stroke="#fff" vector-effect="non-scaling-stroke" d="
  M 410.02 329.49
  Q 413.53 329.38 416.75 329.59
  C 420.90 329.85 424.71 334.34 426.97 337.56
  Q 435.04 349.05 443.34 361.09
  A 1.11 1.10 72.7 0 0 444.25 361.57
  L 468.19 361.55
  A 0.29 0.29 0.0 0 0 468.42 361.09
  Q 459.50 348.95 449.84 335.88
  Q 445.19 329.58 439.67 325.81
  C 438.70 325.14 437.48 324.78 436.49 324.10
  Q 435.70 323.56 436.64 323.36
  Q 443.16 321.94 448.27 318.00
  Q 459.48 309.35 456.79 295.33
  C 453.92 280.33 435.46 277.56 422.85 277.56
  Q 406.07 277.56 387.97 277.56
  A 0.25 0.25 0.0 0 0 387.72 277.81
  L 387.72 361.01
  Q 387.72 361.55 388.26 361.55
  L 409.07 361.59
  Q 409.48 361.59 409.48 361.18
  L 409.48 330.05
  Q 409.48 329.51 410.02 329.49"
/>
<path stroke="#fff" vector-effect="non-scaling-stroke" d="
  M 493.81 277.91
  A 0.35 0.35 0.0 0 0 493.46 277.56
  L 472.29 277.52
  A 0.35 0.35 0.0 0 0 471.94 277.87
  L 471.93 361.20
  A 0.35 0.35 0.0 0 0 472.28 361.55
  L 493.46 361.56
  A 0.35 0.35 0.0 0 0 493.81 361.21
  L 493.81 277.91"
/>
<path stroke="#fff" vector-effect="non-scaling-stroke" d="
  M 119.30 371.99
  L 119.30 369.91
  A 0.88 0.88 0.0 0 0 118.61 369.06
  L 118.33 369.01
  Q 117.52 368.83 117.51 369.67
  L 117.48 379.92
  A 0.64 0.63 87.5 0 0 118.17 380.56
  L 118.81 380.50
  A 0.55 0.55 0.0 0 0 119.32 379.95
  L 119.35 375.38
  Q 119.35 373.74 121.00 373.65
  L 121.41 373.63
  Q 123.28 373.53 123.27 375.41
  L 123.25 379.94
  Q 123.25 380.58 123.88 380.65
  L 124.26 380.70
  A 0.46 0.44 6.2 0 0 124.77 380.30
  Q 125.04 377.49 124.82 375.06
  Q 124.50 371.45 120.22 372.68
  Q 119.31 372.95 119.30 371.99"
/>
<path stroke="#fff" vector-effect="non-scaling-stroke" d="
  M 291.6435 369.7761
  A 0.61 0.61 0.0 0 0 291.0303 369.1693
  L 290.7303 369.1709
  A 0.61 0.61 0.0 0 0 290.1235 369.7840
  L 290.1765 379.9039
  A 0.61 0.61 0.0 0 0 290.7897 380.5107
  L 291.0897 380.5091
  A 0.61 0.61 0.0 0 0 291.6965 379.8960
  L 291.6435 369.7761"
/>
<path stroke="#fff" vector-effect="non-scaling-stroke" d="
  M 403.73 372.29
  L 403.69 369.41
  A 0.36 0.35 -4.4 0 0 403.29 369.07
  L 402.90 369.12
  Q 402.13 369.21 402.13 369.98
  L 402.15 379.92
  Q 402.15 380.63 402.86 380.65
  L 403.26 380.66
  Q 403.67 380.68 403.68 380.26
  L 403.76 375.44
  A 1.79 1.79 0.0 0 1 405.57 373.68
  L 406.14 373.68
  Q 407.84 373.70 407.83 375.39
  L 407.82 379.75
  A 0.89 0.88 -84.9 0 0 408.54 380.62
  L 408.81 380.67
  Q 409.22 380.74 409.26 380.33
  Q 409.49 378.07 409.41 375.10
  C 409.33 372.16 406.60 371.91 404.53 372.81
  Q 403.75 373.15 403.73 372.29"
/>
<path stroke="#fff" vector-effect="non-scaling-stroke" d="
  M 589.96 374.80
  L 590.02 369.97
  Q 590.03 369.41 589.47 369.31
  L 589.08 369.24
  Q 588.27 369.09 588.27 369.92
  L 588.30 379.90
  A 0.61 0.60 86.6 0 0 588.96 380.50
  L 589.24 380.47
  A 0.88 0.88 0.0 0 0 590.01 379.45
  Q 589.87 378.53 590.06 377.59
  A 0.65 0.65 0.0 0 1 591.17 377.28
  L 594.19 380.56
  A 0.83 0.82 50.5 0 0 595.28 380.67
  L 595.53 380.49
  Q 595.85 380.26 595.59 379.96
  L 592.59 376.54
  A 0.77 0.76 46.5 0 1 592.61 375.51
  L 594.92 373.08
  Q 595.38 372.58 594.71 372.51
  L 593.93 372.44
  A 0.39 0.39 0.0 0 0 593.63 372.53
  L 590.79 375.17
  Q 589.94 375.95 589.96 374.80"
/>
<path stroke="#fff" vector-effect="non-scaling-stroke" d="
  M 95.4194 370.2208
  A 0.92 0.78 -8.7 0 0 94.3920 369.5890
  A 0.92 0.78 -8.7 0 0 93.6006 370.4992
  A 0.92 0.78 -8.7 0 0 94.6280 371.1310
  A 0.92 0.78 -8.7 0 0 95.4194 370.2208"
/>
<path stroke="#fff" vector-effect="non-scaling-stroke" d="
  M 247.79 377.84
  L 251.62 377.81
  A 0.86 0.86 0.0 0 1 252.38 378.27
  L 253.52 380.41
  A 0.66 0.66 0.0 0 0 254.74 380.29
  Q 254.90 379.77 254.69 379.30
  Q 252.59 374.60 250.69 370.25
  A 1.06 1.06 0.0 0 0 248.75 370.24
  L 244.67 379.50
  Q 244.12 380.75 245.43 380.40
  Q 246.61 380.08 246.80 378.71
  Q 246.92 377.85 247.79 377.84"
/>
<path stroke="#fff" vector-effect="non-scaling-stroke" d="
  M 352.79 376.94
  L 350.88 371.39
  Q 349.74 368.07 348.53 371.36
  Q 347.55 374.02 346.54 376.97
  Q 346.28 377.73 346.07 376.96
  L 344.18 370.22
  Q 344.02 369.63 343.41 369.62
  L 343.08 369.62
  A 0.43 0.43 0.0 0 0 342.65 370.14
  Q 343.71 375.20 344.74 378.39
  Q 346.27 383.08 347.70 378.36
  Q 348.42 375.97 349.41 373.54
  Q 349.76 372.66 350.08 373.55
  L 352.41 380.24
  A 0.79 0.79 0.0 0 0 353.89 380.27
  Q 355.64 375.73 356.79 370.17
  A 0.41 0.41 0.0 0 0 356.37 369.68
  L 356.02 369.70
  Q 355.28 369.74 355.09 370.45
  L 353.34 376.92
  Q 353.10 377.82 352.79 376.94"
/>
<path stroke="#fff" vector-effect="non-scaling-stroke" d="
  M 104.73 376.24
  L 108.07 376.25
  Q 111.16 376.27 111.03 373.18
  L 111.01 372.69
  A 3.10 3.10 0.0 0 0 107.94 369.72
  L 103.05 369.69
  Q 102.28 369.68 102.28 370.45
  L 102.28 380.05
  A 0.58 0.58 0.0 0 0 102.93 380.63
  L 103.22 380.60
  A 0.83 0.82 86.5 0 0 103.94 379.78
  L 103.95 377.02
  Q 103.95 376.23 104.73 376.24"
/>
<path stroke="#fff" vector-effect="non-scaling-stroke" d="
  M 497.31 373.55
  L 497.24 379.75
  Q 497.23 380.47 497.94 380.61
  L 498.25 380.67
  A 0.44 0.44 0.0 0 0 498.78 380.24
  L 498.80 370.52
  Q 498.80 370.01 498.34 369.79
  C 497.44 369.36 496.53 369.91 496.17 370.76
  Q 494.80 374.01 493.22 377.30
  Q 492.49 378.82 491.96 377.22
  Q 490.76 373.57 488.79 370.25
  Q 488.50 369.76 487.95 369.67
  Q 487.47 369.59 487.03 369.78
  Q 486.56 369.97 486.56 370.48
  L 486.55 379.82
  A 0.72 0.72 0.0 0 0 487.26 380.54
  L 487.68 380.55
  A 0.60 0.60 0.0 0 0 488.29 379.93
  L 488.13 374.23
  Q 488.08 372.50 488.92 374.01
  Q 490.39 376.68 491.55 379.72
  Q 491.85 380.50 492.65 380.59
  A 1.09 1.09 0.0 0 0 493.79 379.89
  Q 495.14 376.34 496.76 373.41
  Q 497.32 372.39 497.31 373.55"
/>
<path stroke="#fff" vector-effect="non-scaling-stroke" d="
  M 551.16 374.44
  L 551.59 373.85
  Q 551.92 373.40 551.96 372.84
  C 552.25 368.86 546.59 369.72 544.38 369.71
  A 0.56 0.56 0.0 0 0 543.81 370.26
  L 543.80 379.79
  Q 543.80 380.43 544.43 380.49
  C 547.17 380.74 553.15 381.13 552.17 376.60
  Q 552.08 376.21 551.81 375.91
  Q 551.59 375.67 551.33 375.48
  Q 550.71 375.05 551.16 374.44"
/>
<path stroke="#fff" vector-effect="non-scaling-stroke" d="
  M 380.20 372.18
  Q 379.96 371.29 379.40 370.67
  A 0.51 0.51 0.0 0 0 378.51 370.96
  Q 378.37 372.38 376.91 372.82
  Q 376.25 373.02 376.82 373.40
  Q 377.21 373.66 377.68 373.66
  Q 378.34 373.65 378.31 374.31
  C 378.22 376.54 377.43 381.18 381.12 380.74
  Q 381.51 380.69 381.66 380.32
  Q 381.79 380.02 381.57 379.77
  Q 381.40 379.58 381.15 379.49
  Q 380.76 379.37 380.42 379.14
  A 1.06 1.04 -73.5 0 1 379.95 378.26
  L 379.94 374.27
  Q 379.94 373.71 380.49 373.76
  Q 381.06 373.82 381.49 373.46
  Q 381.94 373.08 381.49 372.69
  Q 381.24 372.48 380.91 372.58
  A 0.57 0.56 73.9 0 1 380.20 372.18"
/>
<path stroke="#fff" vector-effect="non-scaling-stroke" d="
  M 151.92 375.27
  L 151.89 379.72
  A 0.97 0.96 -80.6 0 0 152.55 380.65
  L 152.88 380.76
  A 0.44 0.44 0.0 0 0 153.46 380.34
  L 153.46 374.43
  A 2.06 2.06 0.0 0 0 151.10 372.40
  Q 149.22 372.68 147.27 372.53
  Q 146.25 372.45 146.25 373.47
  L 146.23 379.99
  A 0.64 0.64 0.0 0 0 146.86 380.63
  L 147.26 380.63
  Q 147.85 380.63 147.85 380.05
  L 147.92 375.26
  Q 147.94 373.71 149.49 373.67
  L 150.26 373.65
  Q 151.93 373.61 151.92 375.27"
/>
<path stroke="#fff" vector-effect="non-scaling-stroke" d="
  M 389.79 377.94
  C 388.59 374.45 391.68 371.71 394.37 374.99
  Q 395.63 376.53 395.51 374.54
  C 395.30 371.03 386.16 371.54 388.22 377.95
  C 389.36 381.51 393.70 381.46 395.68 378.71
  A 0.32 0.32 0.0 0 0 395.56 378.23
  L 395.23 378.06
  Q 394.70 377.80 394.31 378.25
  C 393.04 379.71 390.53 380.12 389.79 377.94"
/>
<path stroke="#fff" vector-effect="non-scaling-stroke" d="
  M 511.16 374.69
  A 0.61 0.60 -13.3 0 1 510.61 375.57
  C 508.75 375.54 505.60 375.70 505.50 378.23
  C 505.41 380.53 508.49 381.17 510.12 380.37
  Q 510.59 380.15 511.09 380.27
  L 512.49 380.62
  Q 513.03 380.75 513.02 380.20
  L 512.90 375.00
  A 2.51 2.51 0.0 0 0 511.19 372.68
  Q 507.45 371.44 505.72 374.38
  Q 505.30 375.09 506.12 374.98
  Q 507.23 374.82 508.03 373.97
  Q 508.41 373.57 508.96 373.52
  Q 510.48 373.37 511.16 374.69"
/>
<path stroke="#fff" vector-effect="non-scaling-stroke" d="
  M 567.20 376.51
  A 4.23 4.23 0.0 0 0 562.97 372.28
  A 4.23 4.23 0.0 0 0 558.74 376.51
  A 4.23 4.23 0.0 0 0 562.97 380.74
  A 4.23 4.23 0.0 0 0 567.20 376.51"
/>
<path stroke="#fff" vector-effect="non-scaling-stroke" d="
  M 95.2842 373.2386
  A 0.78 0.78 0.0 0 0 94.5028 372.4599
  L 94.4228 372.4601
  A 0.78 0.78 0.0 0 0 93.6442 373.2414
  L 93.6558 379.9014
  A 0.78 0.78 0.0 0 0 94.4372 380.6801
  L 94.5172 380.6799
  A 0.78 0.78 0.0 0 0 95.2958 379.8986
  L 95.2842 373.2386"
/>
<path stroke="#fff" vector-effect="non-scaling-stroke" d="
  M 139.79 376.52
  A 4.24 4.24 0.0 0 0 135.55 372.28
  A 4.24 4.24 0.0 0 0 131.31 376.52
  A 4.24 4.24 0.0 0 0 135.55 380.76
  A 4.24 4.24 0.0 0 0 139.79 376.52"
/>
<path stroke="#fff" vector-effect="non-scaling-stroke" d="
  M 162.37 376.76
  L 167.09 376.88
  A 0.79 0.78 86.3 0 0 167.88 375.97
  Q 167.31 372.66 164.48 372.41
  C 157.79 371.81 158.32 383.20 166.61 380.12
  Q 167.08 379.95 167.18 379.45
  Q 167.43 378.12 166.27 378.82
  C 164.60 379.84 162.23 379.63 161.78 377.46
  Q 161.63 376.74 162.37 376.76"
/>
<path stroke="#fff" vector-effect="non-scaling-stroke" d="
  M 263.78 380.19
  C 265.59 381.43 268.14 380.52 268.81 378.50
  C 269.42 376.64 269.33 373.64 267.27 372.73
  C 265.54 371.96 264.00 373.13 262.24 372.47
  Q 261.39 372.15 261.39 373.06
  L 261.38 383.24
  A 0.53 0.53 0.0 0 0 262.00 383.76
  L 262.45 383.67
  Q 263.01 383.57 263.03 383.00
  L 263.11 380.53
  Q 263.14 379.75 263.78 380.19"
/>
<path stroke="#fff" vector-effect="non-scaling-stroke" d="
  M 278.02 380.28
  L 279.37 380.70
  A 1.70 1.62 46.4 0 0 280.21 380.74
  Q 284.17 379.91 283.50 375.48
  C 282.82 370.93 279.02 373.11 276.30 372.50
  Q 275.63 372.35 275.63 373.04
  L 275.68 382.95
  Q 275.68 383.71 276.45 383.68
  L 276.91 383.65
  A 0.60 0.59 88.5 0 0 277.48 383.04
  L 277.41 380.74
  Q 277.40 380.09 278.02 380.28"
/>
<path stroke="#fff" vector-effect="non-scaling-stroke" d="
  M 300.07 377.77
  A 0.75 0.75 0.0 0 1 300.80 376.75
  L 305.52 376.91
  Q 306.18 376.93 306.18 376.27
  C 306.17 372.80 302.48 371.31 299.90 373.12
  C 298.02 374.44 297.42 377.78 299.31 379.43
  Q 302.18 381.95 305.44 379.66
  Q 305.74 379.45 305.71 379.10
  Q 305.67 378.44 305.04 378.65
  C 304.17 378.94 303.50 379.54 302.53 379.51
  Q 300.71 379.46 300.07 377.77"
/>
<path stroke="#fff" vector-effect="non-scaling-stroke" d="
  M 367.26 375.59
  C 365.60 375.75 362.54 375.96 363.00 378.55
  C 363.38 380.68 365.87 381.09 367.57 380.35
  Q 368.54 379.94 369.37 380.49
  Q 370.28 381.10 370.27 380.00
  L 370.20 374.64
  Q 370.18 373.04 368.61 372.69
  Q 364.45 371.75 363.43 374.02
  Q 362.75 375.55 364.17 374.66
  Q 366.85 373.00 367.80 373.71
  Q 369.93 375.32 367.26 375.59"
/>
<path stroke="#fff" vector-effect="non-scaling-stroke" d="
  M 525.56 374.79
  Q 525.83 375.32 526.41 375.45
  Q 527.47 375.69 527.22 374.64
  Q 526.79 372.82 524.96 372.52
  Q 519.51 371.62 519.61 376.92
  C 519.68 381.06 524.46 381.76 527.00 379.05
  Q 527.77 378.23 526.65 378.14
  Q 525.88 378.07 525.35 378.66
  C 523.92 380.25 521.69 379.50 521.26 377.46
  Q 520.95 375.95 521.48 374.80
  A 2.30 2.25 44.2 0 1 525.56 374.79"
/>
<path stroke="#fff" vector-effect="non-scaling-stroke" d="
  M 581.9284 376.8257
  A 4.31 4.20 4.2 0 0 577.9376 372.3213
  A 4.31 4.20 4.2 0 0 573.3316 376.1943
  A 4.31 4.20 4.2 0 0 577.3224 380.6987
  A 4.31 4.20 4.2 0 0 581.9284 376.8257"
/>
<path stroke="#fff" vector-effect="non-scaling-stroke" d="
  M 128.66 416.67
  A 0.58 0.58 0.0 0 1 129.19 417.00
  L 134.13 427.52
  A 0.58 0.58 0.0 0 0 134.63 427.85
  L 140.91 428.06
  A 0.58 0.58 0.0 0 0 141.45 427.22
  L 120.99 385.49
  A 0.58 0.58 0.0 0 0 120.47 385.17
  L 114.72 385.14
  A 0.58 0.58 0.0 0 0 114.20 385.47
  L 93.78 427.09
  A 0.58 0.58 0.0 0 0 94.30 427.93
  L 100.53 427.93
  A 0.58 0.58 0.0 0 0 101.06 427.59
  L 105.95 417.05
  A 0.58 0.58 0.0 0 1 106.48 416.71
  L 128.66 416.67"
/>
<path stroke="#fff" vector-effect="non-scaling-stroke" d="
  M 226.21 411.21
  C 235.48 411.36 258.06 413.38 257.69 398.13
  C 257.46 388.61 248.05 385.25 239.61 385.21
  Q 225.64 385.15 218.81 385.17
  Q 218.24 385.17 218.24 385.75
  L 218.24 427.20
  Q 218.24 427.92 218.95 427.93
  L 224.84 427.97
  Q 225.40 427.98 225.40 427.41
  L 225.44 411.96
  Q 225.45 411.20 226.21 411.21"
/>
<path stroke="#fff" vector-effect="non-scaling-stroke" d="
  M 342.85 411.11
  C 351.47 411.39 371.88 413.25 373.96 400.78
  C 375.62 390.81 367.22 385.44 358.49 385.33
  Q 347.12 385.18 335.34 385.13
  Q 334.75 385.13 334.75 385.72
  L 334.75 427.47
  Q 334.75 427.95 335.22 427.95
  L 341.58 427.98
  Q 342.15 427.99 342.16 427.42
  L 342.17 411.77
  Q 342.17 411.09 342.85 411.11"
/>
<path stroke="#fff" vector-effect="non-scaling-stroke" d="
  M 459.20 423.20
  A 0.48 0.48 0.0 0 1 458.72 422.72
  L 458.73 385.64
  A 0.48 0.48 0.0 0 0 458.25 385.16
  L 451.95 385.09
  A 0.48 0.48 0.0 0 0 451.47 385.57
  L 451.49 427.50
  A 0.48 0.48 0.0 0 0 451.97 427.98
  L 484.23 428.01
  A 0.48 0.48 0.0 0 0 484.71 427.54
  L 484.77 423.70
  A 0.48 0.48 0.0 0 0 484.29 423.21
  L 459.20 423.20"
/>
<path stroke="#fff" vector-effect="non-scaling-stroke" d="
  M 569.43 423.21
  A 0.58 0.58 0.0 0 1 568.85 422.63
  L 568.86 408.71
  A 0.58 0.58 0.0 0 1 569.44 408.13
  L 592.06 408.24
  A 0.58 0.58 0.0 0 0 592.65 407.66
  L 592.69 404.02
  A 0.58 0.58 0.0 0 0 592.11 403.43
  L 569.39 403.47
  A 0.58 0.58 0.0 0 1 568.81 402.89
  L 568.87 390.26
  A 0.58 0.58 0.0 0 1 569.45 389.68
  L 595.53 389.70
  A 0.58 0.58 0.0 0 0 596.11 389.11
  L 596.07 385.70
  A 0.58 0.58 0.0 0 0 595.49 385.13
  L 562.04 385.17
  A 0.58 0.58 0.0 0 0 561.46 385.75
  L 561.47 427.37
  A 0.58 0.58 0.0 0 0 562.05 427.95
  L 595.85 428.01
  A 0.58 0.58 0.0 0 0 596.43 427.43
  L 596.47 423.79
  A 0.58 0.58 0.0 0 0 595.88 423.20
  L 569.43 423.21"
/>
<path stroke="#fff" vector-effect="non-scaling-stroke" d="
  M 525.16 329.10
  C 527.97 339.49 536.22 346.18 547.08 346.55
  Q 556.52 346.87 562.65 342.53
  C 572.93 335.23 574.63 320.30 571.29 309.27
  Q 565.73 290.97 545.20 292.85
  C 526.98 294.51 521.09 314.06 525.16 329.10"
/>
<path stroke="#fff" vector-effect="non-scaling-stroke" d="
  M 267.34 292.71
  L 267.38 317.73
  A 0.45 0.45 0.0 0 0 267.83 318.18
  L 279.08 318.16
  A 14.18 12.10 -0.1 0 0 293.24 306.04
  L 293.24 304.32
  A 14.18 12.10 -0.1 0 0 279.04 292.24
  L 267.79 292.26
  A 0.45 0.45 0.0 0 0 267.34 292.71"
/>
<path stroke="#fff" vector-effect="non-scaling-stroke" d="
  M 409.45 292.00
  L 409.49 314.62
  A 0.32 0.32 0.0 0 0 409.81 314.94
  L 420.52 314.92
  A 13.95 11.18 -0.1 0 0 434.45 303.72
  L 434.45 302.82
  A 13.95 11.18 -0.1 0 0 420.48 291.66
  L 409.77 291.68
  A 0.32 0.32 0.0 0 0 409.45 292.00"
/>
<path stroke="#fff" vector-effect="non-scaling-stroke" d="
  M 247.98 375.88
  A 0.47 0.47 0.0 0 0 248.44 376.50
  L 251.10 376.41
  A 0.47 0.47 0.0 0 0 251.51 375.76
  L 250.07 372.37
  A 0.47 0.47 0.0 0 0 249.19 372.40
  L 247.98 375.88"
/>
<path stroke="#fff" vector-effect="non-scaling-stroke" d="
  M 103.97 371.72
  L 103.95 374.34
  A 0.74 0.74 0.0 0 0 104.68 375.09
  L 107.04 375.11
  A 2.42 1.89 0.6 0 0 109.48 373.25
  L 109.48 372.93
  A 2.42 1.89 0.6 0 0 107.08 371.01
  L 104.72 370.99
  A 0.74 0.74 0.0 0 0 103.97 371.72"
/>
<path stroke="#fff" vector-effect="non-scaling-stroke" d="
  M 545.61 371.59
  L 545.61 373.73
  A 0.61 0.61 0.0 0 0 546.22 374.34
  L 547.87 374.34
  A 2.40 1.49 0.0 0 0 550.27 372.85
  L 550.27 372.47
  A 2.40 1.49 -0.0 0 0 547.87 370.98
  L 546.22 370.98
  A 0.61 0.61 0.0 0 0 545.61 371.59"
/>
<path stroke="#fff" vector-effect="non-scaling-stroke" d="
  M 550.3873 376.4414
  A 0.91 0.91 0.0 0 0 549.4553 375.5539
  L 546.4562 375.6272
  A 0.91 0.91 0.0 0 0 545.5687 376.5592
  L 545.6127 378.3586
  A 0.91 0.91 0.0 0 0 546.5447 379.2461
  L 549.5438 379.1728
  A 0.91 0.91 0.0 0 0 550.4313 378.2408
  L 550.3873 376.4414"
/>
<path stroke="#fff" vector-effect="non-scaling-stroke" d="
  M 511.3237 377.5420
  A 2.09 1.39 -10.7 0 0 509.0119 376.5642
  A 2.09 1.39 -10.7 0 0 507.2163 378.3180
  A 2.09 1.39 -10.7 0 0 509.5281 379.2958
  A 2.09 1.39 -10.7 0 0 511.3237 377.5420"
/>
<path stroke="#fff" vector-effect="non-scaling-stroke" d="
  M 562.9040 379.4899
  A 2.98 2.58 90.5 0 0 565.5099 376.5325
  A 2.98 2.58 90.5 0 0 562.9560 373.5301
  A 2.98 2.58 90.5 0 0 560.3501 376.4875
  A 2.98 2.58 90.5 0 0 562.9040 379.4899"
/>
<path stroke="#fff" vector-effect="non-scaling-stroke" d="
  M 135.5512 379.4998
  A 2.98 2.56 89.4 0 0 138.0799 376.4932
  A 2.98 2.56 89.4 0 0 135.4888 373.5402
  A 2.98 2.56 89.4 0 0 132.9601 376.5468
  A 2.98 2.56 89.4 0 0 135.5512 379.4998"
/>
<path stroke="#fff" vector-effect="non-scaling-stroke" d="
  M 162.10 375.74
  L 165.87 375.68
  A 0.18 0.18 0.0 0 0 166.05 375.50
  L 166.05 375.43
  A 1.95 1.91 -0.8 0 0 164.07 373.55
  L 163.83 373.55
  A 1.95 1.91 -0.8 0 0 161.91 375.49
  L 161.91 375.56
  A 0.18 0.18 0.0 0 0 162.10 375.74"
/>
<path stroke="#fff" vector-effect="non-scaling-stroke" d="
  M 267.4780 375.3854
  A 1.70 1.70 0.0 0 0 265.7900 373.6736
  L 264.7900 373.6666
  A 1.70 1.70 0.0 0 0 263.0782 375.3547
  L 263.0620 377.6746
  A 1.70 1.70 0.0 0 0 264.7500 379.3864
  L 265.7500 379.3934
  A 1.70 1.70 0.0 0 0 267.4618 377.7053
  L 267.4780 375.3854"
/>
<path stroke="#fff" vector-effect="non-scaling-stroke" d="
  M 281.6235 375.3140
  A 1.76 1.76 0.0 0 0 279.8090 373.6101
  L 279.0894 373.6327
  A 1.76 1.76 0.0 0 0 277.3856 375.4471
  L 277.4565 377.7060
  A 1.76 1.76 0.0 0 0 279.2710 379.4099
  L 279.9906 379.3873
  A 1.76 1.76 0.0 0 0 281.6944 377.5729
  L 281.6235 375.3140"
/>
<path stroke="#fff" vector-effect="non-scaling-stroke" d="
  M 300.46 375.74
  L 304.16 375.70
  A 0.20 0.20 0.0 0 0 304.36 375.50
  L 304.36 375.40
  A 1.93 1.88 -0.6 0 0 302.41 373.54
  L 302.17 373.54
  A 1.93 1.88 -0.6 0 0 300.26 375.44
  L 300.26 375.54
  A 0.20 0.20 0.0 0 0 300.46 375.74"
/>
<path stroke="#fff" vector-effect="non-scaling-stroke" d="
  M 368.7289 377.5446
  A 2.12 1.37 -11.3 0 0 366.3816 376.6166
  A 2.12 1.37 -11.3 0 0 364.5711 378.3754
  A 2.12 1.37 -11.3 0 0 366.9184 379.3034
  A 2.12 1.37 -11.3 0 0 368.7289 377.5446"
/>
<path stroke="#fff" vector-effect="non-scaling-stroke" d="
  M 577.4937 379.5054
  A 2.98 2.57 93.2 0 0 580.2260 376.6735
  A 2.98 2.57 93.2 0 0 577.8263 373.5546
  A 2.98 2.57 93.2 0 0 575.0940 376.3865
  A 2.98 2.57 93.2 0 0 577.4937 379.5054"
/>
<path stroke="#fff" vector-effect="non-scaling-stroke" d="
  M 108.57 411.45
  A 0.37 0.37 0.0 0 0 108.91 411.97
  L 126.29 412.01
  A 0.37 0.37 0.0 0 0 126.63 411.48
  L 117.97 392.88
  A 0.37 0.37 0.0 0 0 117.30 392.88
  L 108.57 411.45"
/>
<path stroke="#fff" vector-effect="non-scaling-stroke" d="
  M 225.46 390.17
  L 225.38 405.83
  A 0.56 0.56 0.0 0 0 225.94 406.40
  L 239.60 406.47
  A 10.82 8.20 0.3 0 0 250.46 398.33
  L 250.46 397.95
  A 10.82 8.20 0.3 0 0 239.68 389.69
  L 226.02 389.62
  A 0.56 0.56 0.0 0 0 225.46 390.17"
/>
<path stroke="#fff" vector-effect="non-scaling-stroke" d="
  M 342.18 390.05
  L 342.10 405.99
  A 0.40 0.40 0.0 0 0 342.50 406.39
  L 356.44 406.46
  A 10.44 7.69 0.3 0 0 366.92 398.82
  L 366.92 397.46
  A 10.44 7.69 0.3 0 0 356.52 389.72
  L 342.58 389.65
  A 0.40 0.40 0.0 0 0 342.18 390.05"
/>
</g>
<path fill="#fff" d="
  M 0.00 0.00
  L 681.00 0.00
  L 681.00 681.00
  L 0.00 681.00
  L 0.00 0.00
  Z
  M 483.0340 240.2218
  A 5.46 2.39 130.5 0 0 488.3974 237.6222
  A 5.46 2.39 130.5 0 0 490.1260 231.9182
  A 5.46 2.39 130.5 0 0 484.7626 234.5178
  A 5.46 2.39 130.5 0 0 483.0340 240.2218
  Z
  M 479.30 268.07
  C 482.26 266.86 484.84 266.78 487.92 268.05
  C 493.03 270.15 497.33 263.10 498.45 259.26
  Q 498.66 258.54 498.03 258.12
  Q 491.96 254.04 494.62 247.31
  C 495.11 246.07 496.26 245.20 497.14 244.24
  A 1.07 1.06 42.2 0 0 497.06 242.73
  C 493.15 239.22 488.85 239.99 484.28 241.42
  Q 483.04 241.80 481.84 241.32
  C 472.88 237.74 466.79 243.08 467.09 251.94
  Q 467.36 259.76 472.72 266.20
  C 474.37 268.18 476.78 269.10 479.30 268.07
  Z
  M 587.37 292.85
  C 581.34 285.09 572.15 279.45 562.43 277.58
  C 546.27 274.45 528.30 276.52 515.56 287.43
  Q 501.09 299.81 501.06 320.41
  Q 501.03 343.16 519.41 355.26
  Q 529.17 361.68 541.66 362.65
  C 552.88 363.52 563.93 362.39 573.84 356.93
  Q 588.33 348.95 593.32 334.00
  C 597.77 320.70 596.20 304.19 587.37 292.85
  Z
  M 116.24 277.91
  A 0.37 0.37 0.0 0 0 115.87 277.54
  L 94.63 277.54
  A 0.37 0.37 0.0 0 0 94.26 277.91
  L 94.26 361.19
  A 0.37 0.37 0.0 0 0 94.63 361.56
  L 115.87 361.56
  A 0.37 0.37 0.0 0 0 116.24 361.19
  L 116.24 277.91
  Z
  M 145.33 293.64
  Q 145.39 293.64 145.40 293.69
  Q 146.10 297.01 146.78 300.25
  Q 147.46 303.43 148.71 306.47
  Q 159.46 332.70 170.93 360.98
  Q 171.17 361.58 171.82 361.58
  L 188.43 361.57
  Q 188.97 361.57 189.17 361.06
  Q 200.24 333.24 211.18 305.52
  C 212.53 302.09 213.37 298.53 214.40 294.99
  Q 215.42 291.53 215.07 295.12
  Q 214.56 300.43 214.53 304.96
  Q 214.32 330.95 214.48 361.06
  Q 214.48 361.58 215.00 361.58
  L 235.48 361.54
  A 0.27 0.27 0.0 0 0 235.75 361.27
  L 235.75 278.02
  Q 235.75 277.53 235.27 277.53
  L 205.44 277.54
  A 0.96 0.95 -79.2 0 0 204.55 278.15
  Q 193.48 305.87 184.08 329.75
  C 182.90 332.74 182.25 335.69 181.56 338.75
  A 0.38 0.38 0.0 0 1 180.98 338.99
  Q 180.73 338.83 180.67 338.54
  Q 179.55 332.94 177.94 328.83
  Q 167.73 302.70 157.74 277.73
  Q 157.66 277.53 157.45 277.53
  L 126.23 277.56
  A 0.35 0.34 0.0 0 0 125.88 277.90
  L 125.84 361.19
  A 0.37 0.37 0.0 0 0 126.21 361.56
  L 145.20 361.57
  Q 145.52 361.57 145.52 361.24
  C 145.55 338.70 146.11 316.33 144.71 294.07
  Q 144.68 293.71 145.05 293.67
  L 145.33 293.64
  Z
  M 267.91 332.69
  C 281.64 332.79 295.18 333.05 306.53 324.11
  C 314.70 317.68 317.71 307.87 315.44 297.77
  C 313.74 290.19 309.38 284.75 302.42 281.67
  C 295.72 278.70 287.91 277.59 280.38 277.57
  Q 262.85 277.51 246.11 277.55
  Q 245.48 277.55 245.48 278.19
  L 245.48 361.03
  Q 245.48 361.58 246.03 361.57
  L 266.81 361.54
  Q 267.42 361.54 267.42 360.94
  L 267.35 333.24
  Q 267.35 332.68 267.91 332.69
  Z
  M 344.34 327.35
  A 0.42 0.42 0.0 0 1 344.76 326.93
  L 375.59 327.00
  A 0.42 0.42 0.0 0 0 376.01 326.58
  L 376.02 312.07
  A 0.42 0.42 0.0 0 0 375.60 311.65
  L 344.76 311.68
  A 0.42 0.42 0.0 0 1 344.34 311.26
  L 344.37 293.53
  A 0.42 0.42 0.0 0 1 344.79 293.11
  L 378.01 293.19
  A 0.42 0.42 0.0 0 0 378.43 292.77
  L 378.44 277.97
  A 0.42 0.42 0.0 0 0 378.02 277.55
  L 323.16 277.55
  A 0.42 0.42 0.0 0 0 322.74 277.97
  L 322.74 361.14
  A 0.42 0.42 0.0 0 0 323.16 361.56
  L 380.10 361.56
  A 0.42 0.42 0.0 0 0 380.52 361.14
  L 380.53 346.61
  A 0.42 0.42 0.0 0 0 380.11 346.19
  L 344.79 346.18
  A 0.42 0.42 0.0 0 1 344.37 345.76
  L 344.34 327.35
  Z
  M 410.02 329.49
  Q 413.53 329.38 416.75 329.59
  C 420.90 329.85 424.71 334.34 426.97 337.56
  Q 435.04 349.05 443.34 361.09
  A 1.11 1.10 72.7 0 0 444.25 361.57
  L 468.19 361.55
  A 0.29 0.29 0.0 0 0 468.42 361.09
  Q 459.50 348.95 449.84 335.88
  Q 445.19 329.58 439.67 325.81
  C 438.70 325.14 437.48 324.78 436.49 324.10
  Q 435.70 323.56 436.64 323.36
  Q 443.16 321.94 448.27 318.00
  Q 459.48 309.35 456.79 295.33
  C 453.92 280.33 435.46 277.56 422.85 277.56
  Q 406.07 277.56 387.97 277.56
  A 0.25 0.25 0.0 0 0 387.72 277.81
  L 387.72 361.01
  Q 387.72 361.55 388.26 361.55
  L 409.07 361.59
  Q 409.48 361.59 409.48 361.18
  L 409.48 330.05
  Q 409.48 329.51 410.02 329.49
  Z
  M 493.81 277.91
  A 0.35 0.35 0.0 0 0 493.46 277.56
  L 472.29 277.52
  A 0.35 0.35 0.0 0 0 471.94 277.87
  L 471.93 361.20
  A 0.35 0.35 0.0 0 0 472.28 361.55
  L 493.46 361.56
  A 0.35 0.35 0.0 0 0 493.81 361.21
  L 493.81 277.91
  Z
  M 119.30 371.99
  L 119.30 369.91
  A 0.88 0.88 0.0 0 0 118.61 369.06
  L 118.33 369.01
  Q 117.52 368.83 117.51 369.67
  L 117.48 379.92
  A 0.64 0.63 87.5 0 0 118.17 380.56
  L 118.81 380.50
  A 0.55 0.55 0.0 0 0 119.32 379.95
  L 119.35 375.38
  Q 119.35 373.74 121.00 373.65
  L 121.41 373.63
  Q 123.28 373.53 123.27 375.41
  L 123.25 379.94
  Q 123.25 380.58 123.88 380.65
  L 124.26 380.70
  A 0.46 0.44 6.2 0 0 124.77 380.30
  Q 125.04 377.49 124.82 375.06
  Q 124.50 371.45 120.22 372.68
  Q 119.31 372.95 119.30 371.99
  Z
  M 291.6435 369.7761
  A 0.61 0.61 0.0 0 0 291.0303 369.1693
  L 290.7303 369.1709
  A 0.61 0.61 0.0 0 0 290.1235 369.7840
  L 290.1765 379.9039
  A 0.61 0.61 0.0 0 0 290.7897 380.5107
  L 291.0897 380.5091
  A 0.61 0.61 0.0 0 0 291.6965 379.8960
  L 291.6435 369.7761
  Z
  M 403.73 372.29
  L 403.69 369.41
  A 0.36 0.35 -4.4 0 0 403.29 369.07
  L 402.90 369.12
  Q 402.13 369.21 402.13 369.98
  L 402.15 379.92
  Q 402.15 380.63 402.86 380.65
  L 403.26 380.66
  Q 403.67 380.68 403.68 380.26
  L 403.76 375.44
  A 1.79 1.79 0.0 0 1 405.57 373.68
  L 406.14 373.68
  Q 407.84 373.70 407.83 375.39
  L 407.82 379.75
  A 0.89 0.88 -84.9 0 0 408.54 380.62
  L 408.81 380.67
  Q 409.22 380.74 409.26 380.33
  Q 409.49 378.07 409.41 375.10
  C 409.33 372.16 406.60 371.91 404.53 372.81
  Q 403.75 373.15 403.73 372.29
  Z
  M 589.96 374.80
  L 590.02 369.97
  Q 590.03 369.41 589.47 369.31
  L 589.08 369.24
  Q 588.27 369.09 588.27 369.92
  L 588.30 379.90
  A 0.61 0.60 86.6 0 0 588.96 380.50
  L 589.24 380.47
  A 0.88 0.88 0.0 0 0 590.01 379.45
  Q 589.87 378.53 590.06 377.59
  A 0.65 0.65 0.0 0 1 591.17 377.28
  L 594.19 380.56
  A 0.83 0.82 50.5 0 0 595.28 380.67
  L 595.53 380.49
  Q 595.85 380.26 595.59 379.96
  L 592.59 376.54
  A 0.77 0.76 46.5 0 1 592.61 375.51
  L 594.92 373.08
  Q 595.38 372.58 594.71 372.51
  L 593.93 372.44
  A 0.39 0.39 0.0 0 0 593.63 372.53
  L 590.79 375.17
  Q 589.94 375.95 589.96 374.80
  Z
  M 95.4194 370.2208
  A 0.92 0.78 -8.7 0 0 94.3920 369.5890
  A 0.92 0.78 -8.7 0 0 93.6006 370.4992
  A 0.92 0.78 -8.7 0 0 94.6280 371.1310
  A 0.92 0.78 -8.7 0 0 95.4194 370.2208
  Z
  M 247.79 377.84
  L 251.62 377.81
  A 0.86 0.86 0.0 0 1 252.38 378.27
  L 253.52 380.41
  A 0.66 0.66 0.0 0 0 254.74 380.29
  Q 254.90 379.77 254.69 379.30
  Q 252.59 374.60 250.69 370.25
  A 1.06 1.06 0.0 0 0 248.75 370.24
  L 244.67 379.50
  Q 244.12 380.75 245.43 380.40
  Q 246.61 380.08 246.80 378.71
  Q 246.92 377.85 247.79 377.84
  Z
  M 352.79 376.94
  L 350.88 371.39
  Q 349.74 368.07 348.53 371.36
  Q 347.55 374.02 346.54 376.97
  Q 346.28 377.73 346.07 376.96
  L 344.18 370.22
  Q 344.02 369.63 343.41 369.62
  L 343.08 369.62
  A 0.43 0.43 0.0 0 0 342.65 370.14
  Q 343.71 375.20 344.74 378.39
  Q 346.27 383.08 347.70 378.36
  Q 348.42 375.97 349.41 373.54
  Q 349.76 372.66 350.08 373.55
  L 352.41 380.24
  A 0.79 0.79 0.0 0 0 353.89 380.27
  Q 355.64 375.73 356.79 370.17
  A 0.41 0.41 0.0 0 0 356.37 369.68
  L 356.02 369.70
  Q 355.28 369.74 355.09 370.45
  L 353.34 376.92
  Q 353.10 377.82 352.79 376.94
  Z
  M 104.73 376.24
  L 108.07 376.25
  Q 111.16 376.27 111.03 373.18
  L 111.01 372.69
  A 3.10 3.10 0.0 0 0 107.94 369.72
  L 103.05 369.69
  Q 102.28 369.68 102.28 370.45
  L 102.28 380.05
  A 0.58 0.58 0.0 0 0 102.93 380.63
  L 103.22 380.60
  A 0.83 0.82 86.5 0 0 103.94 379.78
  L 103.95 377.02
  Q 103.95 376.23 104.73 376.24
  Z
  M 497.31 373.55
  L 497.24 379.75
  Q 497.23 380.47 497.94 380.61
  L 498.25 380.67
  A 0.44 0.44 0.0 0 0 498.78 380.24
  L 498.80 370.52
  Q 498.80 370.01 498.34 369.79
  C 497.44 369.36 496.53 369.91 496.17 370.76
  Q 494.80 374.01 493.22 377.30
  Q 492.49 378.82 491.96 377.22
  Q 490.76 373.57 488.79 370.25
  Q 488.50 369.76 487.95 369.67
  Q 487.47 369.59 487.03 369.78
  Q 486.56 369.97 486.56 370.48
  L 486.55 379.82
  A 0.72 0.72 0.0 0 0 487.26 380.54
  L 487.68 380.55
  A 0.60 0.60 0.0 0 0 488.29 379.93
  L 488.13 374.23
  Q 488.08 372.50 488.92 374.01
  Q 490.39 376.68 491.55 379.72
  Q 491.85 380.50 492.65 380.59
  A 1.09 1.09 0.0 0 0 493.79 379.89
  Q 495.14 376.34 496.76 373.41
  Q 497.32 372.39 497.31 373.55
  Z
  M 551.16 374.44
  L 551.59 373.85
  Q 551.92 373.40 551.96 372.84
  C 552.25 368.86 546.59 369.72 544.38 369.71
  A 0.56 0.56 0.0 0 0 543.81 370.26
  L 543.80 379.79
  Q 543.80 380.43 544.43 380.49
  C 547.17 380.74 553.15 381.13 552.17 376.60
  Q 552.08 376.21 551.81 375.91
  Q 551.59 375.67 551.33 375.48
  Q 550.71 375.05 551.16 374.44
  Z
  M 380.20 372.18
  Q 379.96 371.29 379.40 370.67
  A 0.51 0.51 0.0 0 0 378.51 370.96
  Q 378.37 372.38 376.91 372.82
  Q 376.25 373.02 376.82 373.40
  Q 377.21 373.66 377.68 373.66
  Q 378.34 373.65 378.31 374.31
  C 378.22 376.54 377.43 381.18 381.12 380.74
  Q 381.51 380.69 381.66 380.32
  Q 381.79 380.02 381.57 379.77
  Q 381.40 379.58 381.15 379.49
  Q 380.76 379.37 380.42 379.14
  A 1.06 1.04 -73.5 0 1 379.95 378.26
  L 379.94 374.27
  Q 379.94 373.71 380.49 373.76
  Q 381.06 373.82 381.49 373.46
  Q 381.94 373.08 381.49 372.69
  Q 381.24 372.48 380.91 372.58
  A 0.57 0.56 73.9 0 1 380.20 372.18
  Z
  M 151.92 375.27
  L 151.89 379.72
  A 0.97 0.96 -80.6 0 0 152.55 380.65
  L 152.88 380.76
  A 0.44 0.44 0.0 0 0 153.46 380.34
  L 153.46 374.43
  A 2.06 2.06 0.0 0 0 151.10 372.40
  Q 149.22 372.68 147.27 372.53
  Q 146.25 372.45 146.25 373.47
  L 146.23 379.99
  A 0.64 0.64 0.0 0 0 146.86 380.63
  L 147.26 380.63
  Q 147.85 380.63 147.85 380.05
  L 147.92 375.26
  Q 147.94 373.71 149.49 373.67
  L 150.26 373.65
  Q 151.93 373.61 151.92 375.27
  Z
  M 389.79 377.94
  C 388.59 374.45 391.68 371.71 394.37 374.99
  Q 395.63 376.53 395.51 374.54
  C 395.30 371.03 386.16 371.54 388.22 377.95
  C 389.36 381.51 393.70 381.46 395.68 378.71
  A 0.32 0.32 0.0 0 0 395.56 378.23
  L 395.23 378.06
  Q 394.70 377.80 394.31 378.25
  C 393.04 379.71 390.53 380.12 389.79 377.94
  Z
  M 511.16 374.69
  A 0.61 0.60 -13.3 0 1 510.61 375.57
  C 508.75 375.54 505.60 375.70 505.50 378.23
  C 505.41 380.53 508.49 381.17 510.12 380.37
  Q 510.59 380.15 511.09 380.27
  L 512.49 380.62
  Q 513.03 380.75 513.02 380.20
  L 512.90 375.00
  A 2.51 2.51 0.0 0 0 511.19 372.68
  Q 507.45 371.44 505.72 374.38
  Q 505.30 375.09 506.12 374.98
  Q 507.23 374.82 508.03 373.97
  Q 508.41 373.57 508.96 373.52
  Q 510.48 373.37 511.16 374.69
  Z
  M 567.20 376.51
  A 4.23 4.23 0.0 0 0 562.97 372.28
  A 4.23 4.23 0.0 0 0 558.74 376.51
  A 4.23 4.23 0.0 0 0 562.97 380.74
  A 4.23 4.23 0.0 0 0 567.20 376.51
  Z
  M 95.2842 373.2386
  A 0.78 0.78 0.0 0 0 94.5028 372.4599
  L 94.4228 372.4601
  A 0.78 0.78 0.0 0 0 93.6442 373.2414
  L 93.6558 379.9014
  A 0.78 0.78 0.0 0 0 94.4372 380.6801
  L 94.5172 380.6799
  A 0.78 0.78 0.0 0 0 95.2958 379.8986
  L 95.2842 373.2386
  Z
  M 139.79 376.52
  A 4.24 4.24 0.0 0 0 135.55 372.28
  A 4.24 4.24 0.0 0 0 131.31 376.52
  A 4.24 4.24 0.0 0 0 135.55 380.76
  A 4.24 4.24 0.0 0 0 139.79 376.52
  Z
  M 162.37 376.76
  L 167.09 376.88
  A 0.79 0.78 86.3 0 0 167.88 375.97
  Q 167.31 372.66 164.48 372.41
  C 157.79 371.81 158.32 383.20 166.61 380.12
  Q 167.08 379.95 167.18 379.45
  Q 167.43 378.12 166.27 378.82
  C 164.60 379.84 162.23 379.63 161.78 377.46
  Q 161.63 376.74 162.37 376.76
  Z
  M 263.78 380.19
  C 265.59 381.43 268.14 380.52 268.81 378.50
  C 269.42 376.64 269.33 373.64 267.27 372.73
  C 265.54 371.96 264.00 373.13 262.24 372.47
  Q 261.39 372.15 261.39 373.06
  L 261.38 383.24
  A 0.53 0.53 0.0 0 0 262.00 383.76
  L 262.45 383.67
  Q 263.01 383.57 263.03 383.00
  L 263.11 380.53
  Q 263.14 379.75 263.78 380.19
  Z
  M 278.02 380.28
  L 279.37 380.70
  A 1.70 1.62 46.4 0 0 280.21 380.74
  Q 284.17 379.91 283.50 375.48
  C 282.82 370.93 279.02 373.11 276.30 372.50
  Q 275.63 372.35 275.63 373.04
  L 275.68 382.95
  Q 275.68 383.71 276.45 383.68
  L 276.91 383.65
  A 0.60 0.59 88.5 0 0 277.48 383.04
  L 277.41 380.74
  Q 277.40 380.09 278.02 380.28
  Z
  M 300.07 377.77
  A 0.75 0.75 0.0 0 1 300.80 376.75
  L 305.52 376.91
  Q 306.18 376.93 306.18 376.27
  C 306.17 372.80 302.48 371.31 299.90 373.12
  C 298.02 374.44 297.42 377.78 299.31 379.43
  Q 302.18 381.95 305.44 379.66
  Q 305.74 379.45 305.71 379.10
  Q 305.67 378.44 305.04 378.65
  C 304.17 378.94 303.50 379.54 302.53 379.51
  Q 300.71 379.46 300.07 377.77
  Z
  M 367.26 375.59
  C 365.60 375.75 362.54 375.96 363.00 378.55
  C 363.38 380.68 365.87 381.09 367.57 380.35
  Q 368.54 379.94 369.37 380.49
  Q 370.28 381.10 370.27 380.00
  L 370.20 374.64
  Q 370.18 373.04 368.61 372.69
  Q 364.45 371.75 363.43 374.02
  Q 362.75 375.55 364.17 374.66
  Q 366.85 373.00 367.80 373.71
  Q 369.93 375.32 367.26 375.59
  Z
  M 525.56 374.79
  Q 525.83 375.32 526.41 375.45
  Q 527.47 375.69 527.22 374.64
  Q 526.79 372.82 524.96 372.52
  Q 519.51 371.62 519.61 376.92
  C 519.68 381.06 524.46 381.76 527.00 379.05
  Q 527.77 378.23 526.65 378.14
  Q 525.88 378.07 525.35 378.66
  C 523.92 380.25 521.69 379.50 521.26 377.46
  Q 520.95 375.95 521.48 374.80
  A 2.30 2.25 44.2 0 1 525.56 374.79
  Z
  M 581.9284 376.8257
  A 4.31 4.20 4.2 0 0 577.9376 372.3213
  A 4.31 4.20 4.2 0 0 573.3316 376.1943
  A 4.31 4.20 4.2 0 0 577.3224 380.6987
  A 4.31 4.20 4.2 0 0 581.9284 376.8257
  Z
  M 128.66 416.67
  A 0.58 0.58 0.0 0 1 129.19 417.00
  L 134.13 427.52
  A 0.58 0.58 0.0 0 0 134.63 427.85
  L 140.91 428.06
  A 0.58 0.58 0.0 0 0 141.45 427.22
  L 120.99 385.49
  A 0.58 0.58 0.0 0 0 120.47 385.17
  L 114.72 385.14
  A 0.58 0.58 0.0 0 0 114.20 385.47
  L 93.78 427.09
  A 0.58 0.58 0.0 0 0 94.30 427.93
  L 100.53 427.93
  A 0.58 0.58 0.0 0 0 101.06 427.59
  L 105.95 417.05
  A 0.58 0.58 0.0 0 1 106.48 416.71
  L 128.66 416.67
  Z
  M 226.21 411.21
  C 235.48 411.36 258.06 413.38 257.69 398.13
  C 257.46 388.61 248.05 385.25 239.61 385.21
  Q 225.64 385.15 218.81 385.17
  Q 218.24 385.17 218.24 385.75
  L 218.24 427.20
  Q 218.24 427.92 218.95 427.93
  L 224.84 427.97
  Q 225.40 427.98 225.40 427.41
  L 225.44 411.96
  Q 225.45 411.20 226.21 411.21
  Z
  M 342.85 411.11
  C 351.47 411.39 371.88 413.25 373.96 400.78
  C 375.62 390.81 367.22 385.44 358.49 385.33
  Q 347.12 385.18 335.34 385.13
  Q 334.75 385.13 334.75 385.72
  L 334.75 427.47
  Q 334.75 427.95 335.22 427.95
  L 341.58 427.98
  Q 342.15 427.99 342.16 427.42
  L 342.17 411.77
  Q 342.17 411.09 342.85 411.11
  Z
  M 459.20 423.20
  A 0.48 0.48 0.0 0 1 458.72 422.72
  L 458.73 385.64
  A 0.48 0.48 0.0 0 0 458.25 385.16
  L 451.95 385.09
  A 0.48 0.48 0.0 0 0 451.47 385.57
  L 451.49 427.50
  A 0.48 0.48 0.0 0 0 451.97 427.98
  L 484.23 428.01
  A 0.48 0.48 0.0 0 0 484.71 427.54
  L 484.77 423.70
  A 0.48 0.48 0.0 0 0 484.29 423.21
  L 459.20 423.20
  Z
  M 569.43 423.21
  A 0.58 0.58 0.0 0 1 568.85 422.63
  L 568.86 408.71
  A 0.58 0.58 0.0 0 1 569.44 408.13
  L 592.06 408.24
  A 0.58 0.58 0.0 0 0 592.65 407.66
  L 592.69 404.02
  A 0.58 0.58 0.0 0 0 592.11 403.43
  L 569.39 403.47
  A 0.58 0.58 0.0 0 1 568.81 402.89
  L 568.87 390.26
  A 0.58 0.58 0.0 0 1 569.45 389.68
  L 595.53 389.70
  A 0.58 0.58 0.0 0 0 596.11 389.11
  L 596.07 385.70
  A 0.58 0.58 0.0 0 0 595.49 385.13
  L 562.04 385.17
  A 0.58 0.58 0.0 0 0 561.46 385.75
  L 561.47 427.37
  A 0.58 0.58 0.0 0 0 562.05 427.95
  L 595.85 428.01
  A 0.58 0.58 0.0 0 0 596.43 427.43
  L 596.47 423.79
  A 0.58 0.58 0.0 0 0 595.88 423.20
  L 569.43 423.21
  Z"
/>
<ellipse fill="#000" cx="0.00" cy="0.00" transform="translate(486.58,236.07) rotate(130.5)" rx="5.46" ry="2.39"/>
<path fill="#000" d="
  M 487.92 268.05
  C 484.84 266.78 482.26 266.86 479.30 268.07
  C 476.78 269.10 474.37 268.18 472.72 266.20
  Q 467.36 259.76 467.09 251.94
  C 466.79 243.08 472.88 237.74 481.84 241.32
  Q 483.04 241.80 484.28 241.42
  C 488.85 239.99 493.15 239.22 497.06 242.73
  A 1.07 1.06 42.2 0 1 497.14 244.24
  C 496.26 245.20 495.11 246.07 494.62 247.31
  Q 491.96 254.04 498.03 258.12
  Q 498.66 258.54 498.45 259.26
  C 497.33 263.10 493.03 270.15 487.92 268.05
  Z"
/>
<path fill="#000" d="
  M 562.43 277.58
  C 572.15 279.45 581.34 285.09 587.37 292.85
  C 596.20 304.19 597.77 320.70 593.32 334.00
  Q 588.33 348.95 573.84 356.93
  C 563.93 362.39 552.88 363.52 541.66 362.65
  Q 529.17 361.68 519.41 355.26
  Q 501.03 343.16 501.06 320.41
  Q 501.09 299.81 515.56 287.43
  C 528.30 276.52 546.27 274.45 562.43 277.58
  Z
  M 525.16 329.10
  C 527.97 339.49 536.22 346.18 547.08 346.55
  Q 556.52 346.87 562.65 342.53
  C 572.93 335.23 574.63 320.30 571.29 309.27
  Q 565.73 290.97 545.20 292.85
  C 526.98 294.51 521.09 314.06 525.16 329.10
  Z"
/>
<rect fill="#000" x="94.26" y="277.54" width="21.98" height="84.02" rx="0.37"/>
<path fill="#000" d="
  M 144.71 294.07
  C 146.11 316.33 145.55 338.70 145.52 361.24
  Q 145.52 361.57 145.20 361.57
  L 126.21 361.56
  A 0.37 0.37 0.0 0 1 125.84 361.19
  L 125.88 277.90
  A 0.35 0.34 -0.0 0 1 126.23 277.56
  L 157.45 277.53
  Q 157.66 277.53 157.74 277.73
  Q 167.73 302.70 177.94 328.83
  Q 179.55 332.94 180.67 338.54
  Q 180.73 338.83 180.98 338.99
  A 0.38 0.38 0.0 0 0 181.56 338.75
  C 182.25 335.69 182.90 332.74 184.08 329.75
  Q 193.48 305.87 204.55 278.15
  A 0.96 0.95 -79.2 0 1 205.44 277.54
  L 235.27 277.53
  Q 235.75 277.53 235.75 278.02
  L 235.75 361.27
  A 0.27 0.27 0.0 0 1 235.48 361.54
  L 215.00 361.58
  Q 214.48 361.58 214.48 361.06
  Q 214.32 330.95 214.53 304.96
  Q 214.56 300.43 215.07 295.12
  Q 215.42 291.53 214.40 294.99
  C 213.37 298.53 212.53 302.09 211.18 305.52
  Q 200.24 333.24 189.17 361.06
  Q 188.97 361.57 188.43 361.57
  L 171.82 361.58
  Q 171.17 361.58 170.93 360.98
  Q 159.46 332.70 148.71 306.47
  Q 147.46 303.43 146.78 300.25
  Q 146.10 297.01 145.40 293.69
  Q 145.39 293.64 145.33 293.64
  L 145.05 293.67
  Q 144.68 293.71 144.71 294.07
  Z"
/>
<path fill="#000" d="
  M 267.91 332.69
  Q 267.35 332.68 267.35 333.24
  L 267.42 360.94
  Q 267.42 361.54 266.81 361.54
  L 246.03 361.57
  Q 245.48 361.58 245.48 361.03
  L 245.48 278.19
  Q 245.48 277.55 246.11 277.55
  Q 262.85 277.51 280.38 277.57
  C 287.91 277.59 295.72 278.70 302.42 281.67
  C 309.38 284.75 313.74 290.19 315.44 297.77
  C 317.71 307.87 314.70 317.68 306.53 324.11
  C 295.18 333.05 281.64 332.79 267.91 332.69
  Z
  M 267.34 292.71
  L 267.38 317.73
  A 0.45 0.45 0.0 0 0 267.83 318.18
  L 279.08 318.16
  A 14.18 12.10 -0.1 0 0 293.24 306.04
  L 293.24 304.32
  A 14.18 12.10 -0.1 0 0 279.04 292.24
  L 267.79 292.26
  A 0.45 0.45 0.0 0 0 267.34 292.71
  Z"
/>
<path fill="#000" d="
  M 344.34 327.35
  L 344.37 345.76
  A 0.42 0.42 0.0 0 0 344.79 346.18
  L 380.11 346.19
  A 0.42 0.42 0.0 0 1 380.53 346.61
  L 380.52 361.14
  A 0.42 0.42 0.0 0 1 380.10 361.56
  L 323.16 361.56
  A 0.42 0.42 0.0 0 1 322.74 361.14
  L 322.74 277.97
  A 0.42 0.42 0.0 0 1 323.16 277.55
  L 378.02 277.55
  A 0.42 0.42 0.0 0 1 378.44 277.97
  L 378.43 292.77
  A 0.42 0.42 0.0 0 1 378.01 293.19
  L 344.79 293.11
  A 0.42 0.42 0.0 0 0 344.37 293.53
  L 344.34 311.26
  A 0.42 0.42 0.0 0 0 344.76 311.68
  L 375.60 311.65
  A 0.42 0.42 0.0 0 1 376.02 312.07
  L 376.01 326.58
  A 0.42 0.42 0.0 0 1 375.59 327.00
  L 344.76 326.93
  A 0.42 0.42 0.0 0 0 344.34 327.35
  Z"
/>
<path fill="#000" d="
  M 409.48 330.05
  L 409.48 361.18
  Q 409.48 361.59 409.07 361.59
  L 388.26 361.55
  Q 387.72 361.55 387.72 361.01
  L 387.72 277.81
  A 0.25 0.25 0.0 0 1 387.97 277.56
  Q 406.07 277.56 422.85 277.56
  C 435.46 277.56 453.92 280.33 456.79 295.33
  Q 459.48 309.35 448.27 318.00
  Q 443.16 321.94 436.64 323.36
  Q 435.70 323.56 436.49 324.10
  C 437.48 324.78 438.70 325.14 439.67 325.81
  Q 445.19 329.58 449.84 335.88
  Q 459.50 348.95 468.42 361.09
  A 0.29 0.29 0.0 0 1 468.19 361.55
  L 444.25 361.57
  A 1.11 1.10 72.7 0 1 443.34 361.09
  Q 435.04 349.05 426.97 337.56
  C 424.71 334.34 420.90 329.85 416.75 329.59
  Q 413.53 329.38 410.02 329.49
  Q 409.48 329.51 409.48 330.05
  Z
  M 409.45 292.00
  L 409.49 314.62
  A 0.32 0.32 0.0 0 0 409.81 314.94
  L 420.52 314.92
  A 13.95 11.18 -0.1 0 0 434.45 303.72
  L 434.45 302.82
  A 13.95 11.18 -0.1 0 0 420.48 291.66
  L 409.77 291.68
  A 0.32 0.32 0.0 0 0 409.45 292.00
  Z"
/>
<path fill="#000" d="
  M 493.81 277.91
  L 493.81 361.21
  A 0.35 0.35 0.0 0 1 493.46 361.56
  L 472.28 361.55
  A 0.35 0.35 0.0 0 1 471.93 361.20
  L 471.94 277.87
  A 0.35 0.35 0.0 0 1 472.29 277.52
  L 493.46 277.56
  A 0.35 0.35 0.0 0 1 493.81 277.91
  Z"
/>
<path fill="#fff" d="
  M 409.45 292.00
  A 0.32 0.32 0.0 0 1 409.77 291.68
  L 420.48 291.66
  A 13.95 11.18 -0.1 0 1 434.45 302.82
  L 434.45 303.72
  A 13.95 11.18 -0.1 0 1 420.52 314.92
  L 409.81 314.94
  A 0.32 0.32 0.0 0 1 409.49 314.62
  L 409.45 292.00
  Z"
/>
<path fill="#fff" d="
  M 267.34 292.71
  A 0.45 0.45 0.0 0 1 267.79 292.26
  L 279.04 292.24
  A 14.18 12.10 -0.1 0 1 293.24 304.32
  L 293.24 306.04
  A 14.18 12.10 -0.1 0 1 279.08 318.16
  L 267.83 318.18
  A 0.45 0.45 0.0 0 1 267.38 317.73
  L 267.34 292.71
  Z"
/>
<path fill="#fff" d="
  M 547.08 346.55
  C 536.22 346.18 527.97 339.49 525.16 329.10
  C 521.09 314.06 526.98 294.51 545.20 292.85
  Q 565.73 290.97 571.29 309.27
  C 574.63 320.30 572.93 335.23 562.65 342.53
  Q 556.52 346.87 547.08 346.55
  Z"
/>
<path fill="#000" d="
  M 119.30 371.99
  Q 119.31 372.95 120.22 372.68
  Q 124.50 371.45 124.82 375.06
  Q 125.04 377.49 124.77 380.30
  A 0.46 0.44 6.2 0 1 124.26 380.70
  L 123.88 380.65
  Q 123.25 380.58 123.25 379.94
  L 123.27 375.41
  Q 123.28 373.53 121.41 373.63
  L 121.00 373.65
  Q 119.35 373.74 119.35 375.38
  L 119.32 379.95
  A 0.55 0.55 0.0 0 1 118.81 380.50
  L 118.17 380.56
  A 0.64 0.63 87.5 0 1 117.48 379.92
  L 117.51 369.67
  Q 117.52 368.83 118.33 369.01
  L 118.61 369.06
  A 0.88 0.88 0.0 0 1 119.30 369.91
  L 119.30 371.99
  Z"
/>
<rect fill="#000" x="-0.76" y="-5.67" transform="translate(290.91,374.84) rotate(-0.3)" width="1.52" height="11.34" rx="0.61"/>
<path fill="#000" d="
  M 403.73 372.29
  Q 403.75 373.15 404.53 372.81
  C 406.60 371.91 409.33 372.16 409.41 375.10
  Q 409.49 378.07 409.26 380.33
  Q 409.22 380.74 408.81 380.67
  L 408.54 380.62
  A 0.89 0.88 -84.9 0 1 407.82 379.75
  L 407.83 375.39
  Q 407.84 373.70 406.14 373.68
  L 405.57 373.68
  A 1.79 1.79 0.0 0 0 403.76 375.44
  L 403.68 380.26
  Q 403.67 380.68 403.26 380.66
  L 402.86 380.65
  Q 402.15 380.63 402.15 379.92
  L 402.13 369.98
  Q 402.13 369.21 402.90 369.12
  L 403.29 369.07
  A 0.36 0.35 -4.4 0 1 403.69 369.41
  L 403.73 372.29
  Z"
/>
<path fill="#000" d="
  M 590.79 375.17
  L 593.63 372.53
  A 0.39 0.39 0.0 0 1 593.93 372.44
  L 594.71 372.51
  Q 595.38 372.58 594.92 373.08
  L 592.61 375.51
  A 0.77 0.76 46.5 0 0 592.59 376.54
  L 595.59 379.96
  Q 595.85 380.26 595.53 380.49
  L 595.28 380.67
  A 0.83 0.82 50.5 0 1 594.19 380.56
  L 591.17 377.28
  A 0.65 0.65 0.0 0 0 590.06 377.59
  Q 589.87 378.53 590.01 379.45
  A 0.88 0.88 0.0 0 1 589.24 380.47
  L 588.96 380.50
  A 0.61 0.60 86.6 0 1 588.30 379.90
  L 588.27 369.92
  Q 588.27 369.09 589.08 369.24
  L 589.47 369.31
  Q 590.03 369.41 590.02 369.97
  L 589.96 374.80
  Q 589.94 375.95 590.79 375.17
  Z"
/>
<ellipse fill="#000" cx="0.00" cy="0.00" transform="translate(94.51,370.36) rotate(-8.7)" rx="0.92" ry="0.78"/>
<path fill="#000" d="
  M 246.80 378.71
  Q 246.61 380.08 245.43 380.40
  Q 244.12 380.75 244.67 379.50
  L 248.75 370.24
  A 1.06 1.06 0.0 0 1 250.69 370.25
  Q 252.59 374.60 254.69 379.30
  Q 254.90 379.77 254.74 380.29
  A 0.66 0.66 0.0 0 1 253.52 380.41
  L 252.38 378.27
  A 0.86 0.86 0.0 0 0 251.62 377.81
  L 247.79 377.84
  Q 246.92 377.85 246.80 378.71
  Z
  M 247.98 375.88
  A 0.47 0.47 0.0 0 0 248.44 376.50
  L 251.10 376.41
  A 0.47 0.47 0.0 0 0 251.51 375.76
  L 250.07 372.37
  A 0.47 0.47 0.0 0 0 249.19 372.40
  L 247.98 375.88
  Z"
/>
<path fill="#000" d="
  M 353.34 376.92
  L 355.09 370.45
  Q 355.28 369.74 356.02 369.70
  L 356.37 369.68
  A 0.41 0.41 0.0 0 1 356.79 370.17
  Q 355.64 375.73 353.89 380.27
  A 0.79 0.79 0.0 0 1 352.41 380.24
  L 350.08 373.55
  Q 349.76 372.66 349.41 373.54
  Q 348.42 375.97 347.70 378.36
  Q 346.27 383.08 344.74 378.39
  Q 343.71 375.20 342.65 370.14
  A 0.43 0.43 0.0 0 1 343.08 369.62
  L 343.41 369.62
  Q 344.02 369.63 344.18 370.22
  L 346.07 376.96
  Q 346.28 377.73 346.54 376.97
  Q 347.55 374.02 348.53 371.36
  Q 349.74 368.07 350.88 371.39
  L 352.79 376.94
  Q 353.10 377.82 353.34 376.92
  Z"
/>
<path fill="#000" d="
  M 103.95 377.02
  L 103.94 379.78
  A 0.83 0.82 86.5 0 1 103.22 380.60
  L 102.93 380.63
  A 0.58 0.58 0.0 0 1 102.28 380.05
  L 102.28 370.45
  Q 102.28 369.68 103.05 369.69
  L 107.94 369.72
  A 3.10 3.10 0.0 0 1 111.01 372.69
  L 111.03 373.18
  Q 111.16 376.27 108.07 376.25
  L 104.73 376.24
  Q 103.95 376.23 103.95 377.02
  Z
  M 103.97 371.72
  L 103.95 374.34
  A 0.74 0.74 0.0 0 0 104.68 375.09
  L 107.04 375.11
  A 2.42 1.89 0.6 0 0 109.48 373.25
  L 109.48 372.93
  A 2.42 1.89 0.6 0 0 107.08 371.01
  L 104.72 370.99
  A 0.74 0.74 0.0 0 0 103.97 371.72
  Z"
/>
<path fill="#000" d="
  M 496.76 373.41
  Q 495.14 376.34 493.79 379.89
  A 1.09 1.09 0.0 0 1 492.65 380.59
  Q 491.85 380.50 491.55 379.72
  Q 490.39 376.68 488.92 374.01
  Q 488.08 372.50 488.13 374.23
  L 488.29 379.93
  A 0.60 0.60 0.0 0 1 487.68 380.55
  L 487.26 380.54
  A 0.72 0.72 0.0 0 1 486.55 379.82
  L 486.56 370.48
  Q 486.56 369.97 487.03 369.78
  Q 487.47 369.59 487.95 369.67
  Q 488.50 369.76 488.79 370.25
  Q 490.76 373.57 491.96 377.22
  Q 492.49 378.82 493.22 377.30
  Q 494.80 374.01 496.17 370.76
  C 496.53 369.91 497.44 369.36 498.34 369.79
  Q 498.80 370.01 498.80 370.52
  L 498.78 380.24
  A 0.44 0.44 0.0 0 1 498.25 380.67
  L 497.94 380.61
  Q 497.23 380.47 497.24 379.75
  L 497.31 373.55
  Q 497.32 372.39 496.76 373.41
  Z"
/>
<path fill="#000" d="
  M 551.33 375.48
  Q 551.59 375.67 551.81 375.91
  Q 552.08 376.21 552.17 376.60
  C 553.15 381.13 547.17 380.74 544.43 380.49
  Q 543.80 380.43 543.80 379.79
  L 543.81 370.26
  A 0.56 0.56 0.0 0 1 544.38 369.71
  C 546.59 369.72 552.25 368.86 551.96 372.84
  Q 551.92 373.40 551.59 373.85
  L 551.16 374.44
  Q 550.71 375.05 551.33 375.48
  Z
  M 545.61 371.59
  L 545.61 373.73
  A 0.61 0.61 0.0 0 0 546.22 374.34
  L 547.87 374.34
  A 2.40 1.49 0.0 0 0 550.27 372.85
  L 550.27 372.47
  A 2.40 1.49 -0.0 0 0 547.87 370.98
  L 546.22 370.98
  A 0.61 0.61 0.0 0 0 545.61 371.59
  Z
  M 550.3873 376.4414
  A 0.91 0.91 0.0 0 0 549.4553 375.5539
  L 546.4562 375.6272
  A 0.91 0.91 0.0 0 0 545.5687 376.5592
  L 545.6127 378.3586
  A 0.91 0.91 0.0 0 0 546.5447 379.2461
  L 549.5438 379.1728
  A 0.91 0.91 0.0 0 0 550.4313 378.2408
  L 550.3873 376.4414
  Z"
/>
<path fill="#000" d="
  M 380.91 372.58
  Q 381.24 372.48 381.49 372.69
  Q 381.94 373.08 381.49 373.46
  Q 381.06 373.82 380.49 373.76
  Q 379.94 373.71 379.94 374.27
  L 379.95 378.26
  A 1.06 1.04 -73.5 0 0 380.42 379.14
  Q 380.76 379.37 381.15 379.49
  Q 381.40 379.58 381.57 379.77
  Q 381.79 380.02 381.66 380.32
  Q 381.51 380.69 381.12 380.74
  C 377.43 381.18 378.22 376.54 378.31 374.31
  Q 378.34 373.65 377.68 373.66
  Q 377.21 373.66 376.82 373.40
  Q 376.25 373.02 376.91 372.82
  Q 378.37 372.38 378.51 370.96
  A 0.51 0.51 0.0 0 1 379.40 370.67
  Q 379.96 371.29 380.20 372.18
  A 0.57 0.56 73.9 0 0 380.91 372.58
  Z"
/>
<path fill="#fff" d="
  M 103.97 371.72
  A 0.74 0.74 0.0 0 1 104.72 370.99
  L 107.08 371.01
  A 2.42 1.89 0.6 0 1 109.48 372.93
  L 109.48 373.25
  A 2.42 1.89 0.6 0 1 107.04 375.11
  L 104.68 375.09
  A 0.74 0.74 0.0 0 1 103.95 374.34
  L 103.97 371.72
  Z"
/>
<path fill="#fff" d="
  M 545.61 371.59
  A 0.61 0.61 0.0 0 1 546.22 370.98
  L 547.87 370.98
  A 2.40 1.49 -0.0 0 1 550.27 372.47
  L 550.27 372.85
  A 2.40 1.49 0.0 0 1 547.87 374.34
  L 546.22 374.34
  A 0.61 0.61 0.0 0 1 545.61 373.73
  L 545.61 371.59
  Z"
/>
<path fill="#fff" d="
  M 247.98 375.88
  L 249.19 372.40
  A 0.47 0.47 0.0 0 1 250.07 372.37
  L 251.51 375.76
  A 0.47 0.47 0.0 0 1 251.10 376.41
  L 248.44 376.50
  A 0.47 0.47 0.0 0 1 247.98 375.88
  Z"
/>
<path fill="#000" d="
  M 151.92 375.27
  Q 151.93 373.61 150.26 373.65
  L 149.49 373.67
  Q 147.94 373.71 147.92 375.26
  L 147.85 380.05
  Q 147.85 380.63 147.26 380.63
  L 146.86 380.63
  A 0.64 0.64 0.0 0 1 146.23 379.99
  L 146.25 373.47
  Q 146.25 372.45 147.27 372.53
  Q 149.22 372.68 151.10 372.40
  A 2.06 2.06 0.0 0 1 153.46 374.43
  L 153.46 380.34
  A 0.44 0.44 0.0 0 1 152.88 380.76
  L 152.55 380.65
  A 0.97 0.96 -80.6 0 1 151.89 379.72
  L 151.92 375.27
  Z"
/>
<path fill="#000" d="
  M 394.37 374.99
  C 391.68 371.71 388.59 374.45 389.79 377.94
  C 390.53 380.12 393.04 379.71 394.31 378.25
  Q 394.70 377.80 395.23 378.06
  L 395.56 378.23
  A 0.32 0.32 0.0 0 1 395.68 378.71
  C 393.70 381.46 389.36 381.51 388.22 377.95
  C 386.16 371.54 395.30 371.03 395.51 374.54
  Q 395.63 376.53 394.37 374.99
  Z"
/>
<path fill="#000" d="
  M 511.16 374.69
  Q 510.48 373.37 508.96 373.52
  Q 508.41 373.57 508.03 373.97
  Q 507.23 374.82 506.12 374.98
  Q 505.30 375.09 505.72 374.38
  Q 507.45 371.44 511.19 372.68
  A 2.51 2.51 0.0 0 1 512.90 375.00
  L 513.02 380.20
  Q 513.03 380.75 512.49 380.62
  L 511.09 380.27
  Q 510.59 380.15 510.12 380.37
  C 508.49 381.17 505.41 380.53 505.50 378.23
  C 505.60 375.70 508.75 375.54 510.61 375.57
  A 0.61 0.60 -13.3 0 0 511.16 374.69
  Z
  M 511.3237 377.5420
  A 2.09 1.39 -10.7 0 0 509.0119 376.5642
  A 2.09 1.39 -10.7 0 0 507.2163 378.3180
  A 2.09 1.39 -10.7 0 0 509.5281 379.2958
  A 2.09 1.39 -10.7 0 0 511.3237 377.5420
  Z"
/>
<path fill="#000" d="
  M 567.20 376.51
  A 4.23 4.23 0.0 0 1 562.97 380.74
  A 4.23 4.23 0.0 0 1 558.74 376.51
  A 4.23 4.23 0.0 0 1 562.97 372.28
  A 4.23 4.23 0.0 0 1 567.20 376.51
  Z
  M 562.9040 379.4899
  A 2.98 2.58 90.5 0 0 565.5099 376.5325
  A 2.98 2.58 90.5 0 0 562.9560 373.5301
  A 2.98 2.58 90.5 0 0 560.3501 376.4875
  A 2.98 2.58 90.5 0 0 562.9040 379.4899
  Z"
/>
<rect fill="#000" x="-0.82" y="-4.11" transform="translate(94.47,376.57) rotate(-0.1)" width="1.64" height="8.22" rx="0.78"/>
<path fill="#000" d="
  M 139.79 376.52
  A 4.24 4.24 0.0 0 1 135.55 380.76
  A 4.24 4.24 0.0 0 1 131.31 376.52
  A 4.24 4.24 0.0 0 1 135.55 372.28
  A 4.24 4.24 0.0 0 1 139.79 376.52
  Z
  M 135.5512 379.4998
  A 2.98 2.56 89.4 0 0 138.0799 376.4932
  A 2.98 2.56 89.4 0 0 135.4888 373.5402
  A 2.98 2.56 89.4 0 0 132.9601 376.5468
  A 2.98 2.56 89.4 0 0 135.5512 379.4998
  Z"
/>
<path fill="#000" d="
  M 161.78 377.46
  C 162.23 379.63 164.60 379.84 166.27 378.82
  Q 167.43 378.12 167.18 379.45
  Q 167.08 379.95 166.61 380.12
  C 158.32 383.20 157.79 371.81 164.48 372.41
  Q 167.31 372.66 167.88 375.97
  A 0.79 0.78 86.3 0 1 167.09 376.88
  L 162.37 376.76
  Q 161.63 376.74 161.78 377.46
  Z
  M 162.10 375.74
  L 165.87 375.68
  A 0.18 0.18 0.0 0 0 166.05 375.50
  L 166.05 375.43
  A 1.95 1.91 -0.8 0 0 164.07 373.55
  L 163.83 373.55
  A 1.95 1.91 -0.8 0 0 161.91 375.49
  L 161.91 375.56
  A 0.18 0.18 0.0 0 0 162.10 375.74
  Z"
/>
<path fill="#000" d="
  M 263.11 380.53
  L 263.03 383.00
  Q 263.01 383.57 262.45 383.67
  L 262.00 383.76
  A 0.53 0.53 0.0 0 1 261.38 383.24
  L 261.39 373.06
  Q 261.39 372.15 262.24 372.47
  C 264.00 373.13 265.54 371.96 267.27 372.73
  C 269.33 373.64 269.42 376.64 268.81 378.50
  C 268.14 380.52 265.59 381.43 263.78 380.19
  Q 263.14 379.75 263.11 380.53
  Z
  M 267.4780 375.3854
  A 1.70 1.70 0.0 0 0 265.7900 373.6736
  L 264.7900 373.6666
  A 1.70 1.70 0.0 0 0 263.0782 375.3547
  L 263.0620 377.6746
  A 1.70 1.70 0.0 0 0 264.7500 379.3864
  L 265.7500 379.3934
  A 1.70 1.70 0.0 0 0 267.4618 377.7053
  L 267.4780 375.3854
  Z"
/>
<path fill="#000" d="
  M 277.41 380.74
  L 277.48 383.04
  A 0.60 0.59 88.5 0 1 276.91 383.65
  L 276.45 383.68
  Q 275.68 383.71 275.68 382.95
  L 275.63 373.04
  Q 275.63 372.35 276.30 372.50
  C 279.02 373.11 282.82 370.93 283.50 375.48
  Q 284.17 379.91 280.21 380.74
  A 1.70 1.62 46.4 0 1 279.37 380.70
  L 278.02 380.28
  Q 277.40 380.09 277.41 380.74
  Z
  M 281.6235 375.3140
  A 1.76 1.76 0.0 0 0 279.8090 373.6101
  L 279.0894 373.6327
  A 1.76 1.76 0.0 0 0 277.3856 375.4471
  L 277.4565 377.7060
  A 1.76 1.76 0.0 0 0 279.2710 379.4099
  L 279.9906 379.3873
  A 1.76 1.76 0.0 0 0 281.6944 377.5729
  L 281.6235 375.3140
  Z"
/>
<path fill="#000" d="
  M 300.07 377.77
  Q 300.71 379.46 302.53 379.51
  C 303.50 379.54 304.17 378.94 305.04 378.65
  Q 305.67 378.44 305.71 379.10
  Q 305.74 379.45 305.44 379.66
  Q 302.18 381.95 299.31 379.43
  C 297.42 377.78 298.02 374.44 299.90 373.12
  C 302.48 371.31 306.17 372.80 306.18 376.27
  Q 306.18 376.93 305.52 376.91
  L 300.80 376.75
  A 0.75 0.75 0.0 0 0 300.07 377.77
  Z
  M 300.46 375.74
  L 304.16 375.70
  A 0.20 0.20 0.0 0 0 304.36 375.50
  L 304.36 375.40
  A 1.93 1.88 -0.6 0 0 302.41 373.54
  L 302.17 373.54
  A 1.93 1.88 -0.6 0 0 300.26 375.44
  L 300.26 375.54
  A 0.20 0.20 0.0 0 0 300.46 375.74
  Z"
/>
<path fill="#000" d="
  M 367.26 375.59
  Q 369.93 375.32 367.80 373.71
  Q 366.85 373.00 364.17 374.66
  Q 362.75 375.55 363.43 374.02
  Q 364.45 371.75 368.61 372.69
  Q 370.18 373.04 370.20 374.64
  L 370.27 380.00
  Q 370.28 381.10 369.37 380.49
  Q 368.54 379.94 367.57 380.35
  C 365.87 381.09 363.38 380.68 363.00 378.55
  C 362.54 375.96 365.60 375.75 367.26 375.59
  Z
  M 368.7289 377.5446
  A 2.12 1.37 -11.3 0 0 366.3816 376.6166
  A 2.12 1.37 -11.3 0 0 364.5711 378.3754
  A 2.12 1.37 -11.3 0 0 366.9184 379.3034
  A 2.12 1.37 -11.3 0 0 368.7289 377.5446
  Z"
/>
<path fill="#000" d="
  M 525.56 374.79
  A 2.30 2.25 44.2 0 0 521.48 374.80
  Q 520.95 375.95 521.26 377.46
  C 521.69 379.50 523.92 380.25 525.35 378.66
  Q 525.88 378.07 526.65 378.14
  Q 527.77 378.23 527.00 379.05
  C 524.46 381.76 519.68 381.06 519.61 376.92
  Q 519.51 371.62 524.96 372.52
  Q 526.79 372.82 527.22 374.64
  Q 527.47 375.69 526.41 375.45
  Q 525.83 375.32 525.56 374.79
  Z"
/>
<path fill="#000" d="
  M 581.9284 376.8257
  A 4.31 4.20 4.2 0 1 577.3224 380.6987
  A 4.31 4.20 4.2 0 1 573.3316 376.1943
  A 4.31 4.20 4.2 0 1 577.9376 372.3213
  A 4.31 4.20 4.2 0 1 581.9284 376.8257
  Z
  M 577.4937 379.5054
  A 2.98 2.57 93.2 0 0 580.2260 376.6735
  A 2.98 2.57 93.2 0 0 577.8263 373.5546
  A 2.98 2.57 93.2 0 0 575.0940 376.3865
  A 2.98 2.57 93.2 0 0 577.4937 379.5054
  Z"
/>
<ellipse fill="#fff" cx="0.00" cy="0.00" transform="translate(135.52,376.52) rotate(89.4)" rx="2.98" ry="2.56"/>
<path fill="#fff" d="
  M 162.10 375.74
  A 0.18 0.18 0.0 0 1 161.91 375.56
  L 161.91 375.49
  A 1.95 1.91 -0.8 0 1 163.83 373.55
  L 164.07 373.55
  A 1.95 1.91 -0.8 0 1 166.05 375.43
  L 166.05 375.50
  A 0.18 0.18 0.0 0 1 165.87 375.68
  L 162.10 375.74
  Z"
/>
<rect fill="#fff" x="-2.12" y="-2.89" transform="translate(279.54,376.51) rotate(-1.8)" width="4.24" height="5.78" rx="1.76"/>
<path fill="#fff" d="
  M 300.46 375.74
  A 0.20 0.20 0.0 0 1 300.26 375.54
  L 300.26 375.44
  A 1.93 1.88 -0.6 0 1 302.17 373.54
  L 302.41 373.54
  A 1.93 1.88 -0.6 0 1 304.36 375.40
  L 304.36 375.50
  A 0.20 0.20 0.0 0 1 304.16 375.70
  L 300.46 375.74
  Z"
/>
<ellipse fill="#fff" cx="0.00" cy="0.00" transform="translate(562.93,376.51) rotate(90.5)" rx="2.98" ry="2.58"/>
<ellipse fill="#fff" cx="0.00" cy="0.00" transform="translate(577.66,376.53) rotate(93.2)" rx="2.98" ry="2.57"/>
<rect fill="#fff" x="-2.20" y="-2.86" transform="translate(265.27,376.53) rotate(0.4)" width="4.40" height="5.72" rx="1.70"/>
<rect fill="#fff" x="-2.41" y="-1.81" transform="translate(548.00,377.40) rotate(-1.4)" width="4.82" height="3.62" rx="0.91"/>
<ellipse fill="#fff" cx="0.00" cy="0.00" transform="translate(366.65,377.96) rotate(-11.3)" rx="2.12" ry="1.37"/>
<ellipse fill="#fff" cx="0.00" cy="0.00" transform="translate(509.27,377.93) rotate(-10.7)" rx="2.09" ry="1.39"/>
<path fill="#000" d="
  M 128.66 416.67
  L 106.48 416.71
  A 0.58 0.58 0.0 0 0 105.95 417.05
  L 101.06 427.59
  A 0.58 0.58 0.0 0 1 100.53 427.93
  L 94.30 427.93
  A 0.58 0.58 0.0 0 1 93.78 427.09
  L 114.20 385.47
  A 0.58 0.58 0.0 0 1 114.72 385.14
  L 120.47 385.17
  A 0.58 0.58 0.0 0 1 120.99 385.49
  L 141.45 427.22
  A 0.58 0.58 0.0 0 1 140.91 428.06
  L 134.63 427.85
  A 0.58 0.58 0.0 0 1 134.13 427.52
  L 129.19 417.00
  A 0.58 0.58 0.0 0 0 128.66 416.67
  Z
  M 108.57 411.45
  A 0.37 0.37 0.0 0 0 108.91 411.97
  L 126.29 412.01
  A 0.37 0.37 0.0 0 0 126.63 411.48
  L 117.97 392.88
  A 0.37 0.37 0.0 0 0 117.30 392.88
  L 108.57 411.45
  Z"
/>
<path fill="#000" d="
  M 225.44 411.96
  L 225.40 427.41
  Q 225.40 427.98 224.84 427.97
  L 218.95 427.93
  Q 218.24 427.92 218.24 427.20
  L 218.24 385.75
  Q 218.24 385.17 218.81 385.17
  Q 225.64 385.15 239.61 385.21
  C 248.05 385.25 257.46 388.61 257.69 398.13
  C 258.06 413.38 235.48 411.36 226.21 411.21
  Q 225.45 411.20 225.44 411.96
  Z
  M 225.46 390.17
  L 225.38 405.83
  A 0.56 0.56 0.0 0 0 225.94 406.40
  L 239.60 406.47
  A 10.82 8.20 0.3 0 0 250.46 398.33
  L 250.46 397.95
  A 10.82 8.20 0.3 0 0 239.68 389.69
  L 226.02 389.62
  A 0.56 0.56 0.0 0 0 225.46 390.17
  Z"
/>
<path fill="#000" d="
  M 342.17 411.77
  L 342.16 427.42
  Q 342.15 427.99 341.58 427.98
  L 335.22 427.95
  Q 334.75 427.95 334.75 427.47
  L 334.75 385.72
  Q 334.75 385.13 335.34 385.13
  Q 347.12 385.18 358.49 385.33
  C 367.22 385.44 375.62 390.81 373.96 400.78
  C 371.88 413.25 351.47 411.39 342.85 411.11
  Q 342.17 411.09 342.17 411.77
  Z
  M 342.18 390.05
  L 342.10 405.99
  A 0.40 0.40 0.0 0 0 342.50 406.39
  L 356.44 406.46
  A 10.44 7.69 0.3 0 0 366.92 398.82
  L 366.92 397.46
  A 10.44 7.69 0.3 0 0 356.52 389.72
  L 342.58 389.65
  A 0.40 0.40 0.0 0 0 342.18 390.05
  Z"
/>
<path fill="#000" d="
  M 459.20 423.20
  L 484.29 423.21
  A 0.48 0.48 0.0 0 1 484.77 423.70
  L 484.71 427.54
  A 0.48 0.48 0.0 0 1 484.23 428.01
  L 451.97 427.98
  A 0.48 0.48 0.0 0 1 451.49 427.50
  L 451.47 385.57
  A 0.48 0.48 0.0 0 1 451.95 385.09
  L 458.25 385.16
  A 0.48 0.48 0.0 0 1 458.73 385.64
  L 458.72 422.72
  A 0.48 0.48 0.0 0 0 459.20 423.20
  Z"
/>
<path fill="#000" d="
  M 569.43 423.21
  L 595.88 423.20
  A 0.58 0.58 0.0 0 1 596.47 423.79
  L 596.43 427.43
  A 0.58 0.58 0.0 0 1 595.85 428.01
  L 562.05 427.95
  A 0.58 0.58 0.0 0 1 561.47 427.37
  L 561.46 385.75
  A 0.58 0.58 0.0 0 1 562.04 385.17
  L 595.49 385.13
  A 0.58 0.58 0.0 0 1 596.07 385.70
  L 596.11 389.11
  A 0.58 0.58 0.0 0 1 595.53 389.70
  L 569.45 389.68
  A 0.58 0.58 0.0 0 0 568.87 390.26
  L 568.81 402.89
  A 0.58 0.58 0.0 0 0 569.39 403.47
  L 592.11 403.43
  A 0.58 0.58 0.0 0 1 592.69 404.02
  L 592.65 407.66
  A 0.58 0.58 0.0 0 1 592.06 408.24
  L 569.44 408.13
  A 0.58 0.58 0.0 0 0 568.86 408.71
  L 568.85 422.63
  A 0.58 0.58 0.0 0 0 569.43 423.21
  Z"
/>
<path fill="#fff" d="
  M 342.18 390.05
  A 0.40 0.40 0.0 0 1 342.58 389.65
  L 356.52 389.72
  A 10.44 7.69 0.3 0 1 366.92 397.46
  L 366.92 398.82
  A 10.44 7.69 0.3 0 1 356.44 406.46
  L 342.50 406.39
  A 0.40 0.40 0.0 0 1 342.10 405.99
  L 342.18 390.05
  Z"
/>
<path fill="#fff" d="
  M 225.46 390.17
  A 0.56 0.56 0.0 0 1 226.02 389.62
  L 239.68 389.69
  A 10.82 8.20 0.3 0 1 250.46 397.95
  L 250.46 398.33
  A 10.82 8.20 0.3 0 1 239.60 406.47
  L 225.94 406.40
  A 0.56 0.56 0.0 0 1 225.38 405.83
  L 225.46 390.17
  Z"
/>
<path fill="#fff" d="
  M 108.57 411.45
  L 117.30 392.88
  A 0.37 0.37 0.0 0 1 117.97 392.88
  L 126.63 411.48
  A 0.37 0.37 0.0 0 1 126.29 412.01
  L 108.91 411.97
  A 0.37 0.37 0.0 0 1 108.57 411.45
  Z"
/>
</svg>
